<?xml version="1.0" encoding="utf-8"?>
<!-- Generator: Adobe Illustrator 23.0.1, SVG Export Plug-In . SVG Version: 6.00 Build 0)  -->
<svg version="1.1" id="bc812f07-65cf-4d9b-b76c-8815e86162f5"
	 xmlns="http://www.w3.org/2000/svg" xmlns:xlink="http://www.w3.org/1999/xlink" x="0px" y="0px" viewBox="0 0 756.5 413.3"
	 style="enable-background:new 0 0 756.5 413.3;" xml:space="preserve">
<style type="text/css">
	.st0{fill:#E6E6E6;}
	.st1{fill:#FFFFFF;}
	.st2{fill:#FF6584;}
	.st3{fill:#3F3D56;}
	.st4{fill:#FFFC31;}
	.st5{fill:#3F3F3F;}
	.st6{opacity:0.2;enable-background:new    ;}
	.st7{fill:#CCCCCC;}
	.st8{fill:#F2F2F2;}
</style>
<title>moments</title>
<path class="st0" d="M566.2,139.9c-0.8,0-1.4,0.6-1.4,1.4v95.6c0,0.8,0.6,1.4,1.4,1.4h133.2c0.8,0,1.4-0.6,1.4-1.4v-95.6
	c0-0.8-0.6-1.4-1.4-1.4H566.2z"/>
<path class="st1" d="M692,148.4v67.9c0,0.9-0.8,1.7-1.7,1.7H575c-0.1,0-0.2,0-0.2,0c-0.8-0.1-1.5-0.8-1.5-1.7v-67.9
	c0-0.9,0.8-1.7,1.7-1.7h115.3C691.3,146.7,692,147.5,692,148.4z"/>
<circle class="st2" cx="668.1" cy="171.6" r="6.2"/>
<circle class="st3" cx="568.8" cy="143.3" r="2"/>
<circle class="st3" cx="696.5" cy="143.3" r="2"/>
<circle class="st3" cx="568.8" cy="234.8" r="2"/>
<circle class="st3" cx="696.5" cy="234.8" r="2"/>
<circle class="st4" cx="611.3" cy="188.5" r="7.4"/>
<polygon class="st3" points="612,210.9 610.5,210.9 611.2,187.4 "/>
<polygon class="st3" points="611.3,191.8 612.9,189.6 611.3,192.4 611.1,192.1 "/>
<polygon class="st3" points="611.1,194.1 609.5,191.8 611.1,194.7 611.3,194.3 "/>
<circle class="st4" cx="679.5" cy="188.5" r="7.4"/>
<polygon class="st3" points="680.2,210.9 678.7,210.9 679.4,187.4 "/>
<polygon class="st3" points="679.5,191.8 681.1,189.6 679.5,192.4 679.3,192.1 "/>
<polygon class="st3" points="679.3,194.1 677.7,191.8 679.3,194.7 679.5,194.3 "/>
<circle class="st4" cx="632.8" cy="182" r="11"/>
<polygon class="st3" points="633.9,215.1 631.6,215.1 632.6,180.3 "/>
<polygon class="st3" points="632.8,186.9 635.3,183.6 632.8,187.8 632.5,187.3 "/>
<polygon class="st3" points="632.6,190.3 630.2,187 632.6,191.1 632.9,190.7 "/>
<circle class="st4" cx="659.6" cy="177.8" r="11"/>
<polygon class="st3" points="660.6,210.9 658.4,210.9 659.4,176.2 "/>
<polygon class="st3" points="659.6,182.7 662,179.4 659.6,183.6 659.3,183.1 "/>
<polygon class="st3" points="659.4,186.1 656.9,182.8 659.4,186.9 659.6,186.5 "/>
<circle class="st4" cx="590.1" cy="177.8" r="11"/>
<polygon class="st3" points="591.2,210.9 589,210.9 590,176.2 "/>
<polygon class="st3" points="590.2,182.7 592.6,179.4 590.1,183.6 589.9,183.1 "/>
<polygon class="st3" points="589.9,186.1 587.5,182.8 589.9,186.9 590.2,186.5 "/>
<path class="st5" d="M633.4,218.1H575c-0.1,0-0.2,0-0.2,0c-0.8-0.1-1.5-0.8-1.5-1.7v-14.6c5.5-0.9,11.1-1.4,16.6-1.4
	c20.7,0,38.1,5.9,42.4,13.9C633,215.4,633.4,216.7,633.4,218.1z"/>
<path class="st3" d="M692,213v3.3c0,0.9-0.8,1.7-1.7,1.7h-64.6c2.1-1.5,4.3-2.8,6.7-3.7c7.9-3.4,19.1-5.5,31.5-5.5
	C674.6,208.8,684.4,210.4,692,213z"/>
<path class="st0" d="M575.2,29.7c-0.2-0.1-0.4-0.1-0.6,0l-109,24.1c-0.6,0.1-1,0.8-0.9,1.4l17.3,78.3c0.1,0.6,0.8,1,1.4,0.9
	l109-24.1c0.6-0.1,1-0.8,0.9-1.4L576,30.5c-0.1-0.3-0.3-0.6-0.5-0.7C575.4,29.7,575.3,29.7,575.2,29.7z"/>
<path class="st1" d="M570.1,38l12.3,55.6c0.2,0.8-0.3,1.5-1.1,1.7c0,0,0,0,0,0l-94.4,20.9c-0.1,0-0.1,0-0.2,0
	c-0.7,0.1-1.4-0.4-1.5-1.1l-12.3-55.6c-0.2-0.8,0.3-1.5,1.1-1.7c0,0,0,0,0,0l94.4-20.9C569.2,36.7,570,37.2,570.1,38
	C570.1,38,570.1,38,570.1,38z"/>
<ellipse transform="matrix(0.2683 -0.9633 0.9633 0.2683 295.673 536.4834)" class="st4" cx="501" cy="73.6" rx="12.6" ry="12.6"/>
<path class="st5" d="M547.9,103l-60.3,13.3c-0.1,0-0.2,0-0.2,0L505,60.6c0.3-1.1,1.5-1.7,2.6-1.4c0.4,0.1,0.7,0.3,0.9,0.6l26.4,28.9
	l1.3,1.4L547.9,103z"/>
<polygon class="st6" points="547.9,103 527.3,107.5 534.2,90.6 534.6,89.4 534.9,88.8 536.2,90.2 "/>
<path class="st5" d="M581.4,95.5l-52.1,11.5l6.9-16.9l0.5-1.2l8.9-22c0.6-1.4,2.6-2,3.9-1.1c0.1,0.1,0.2,0.1,0.2,0.2L581.4,95.5z"/>
<ellipse transform="matrix(0.2681 -0.9634 0.9634 0.2681 288.7099 492.2252)" class="st3" cx="468.3" cy="56.1" rx="1.7" ry="1.7"/>
<ellipse class="st3" cx="573.3" cy="34.6" rx="1" ry="1.2"/>
<circle class="st3" cx="484.7" cy="128.9" r="2.5"/>
<ellipse transform="matrix(0.2681 -0.9634 0.9634 0.2681 327.4406 646.8439)" class="st3" cx="589.4" cy="107.9" rx="1.7" ry="1.7"/>
<path class="st0" d="M561.5,379c0.7,0.2,1.5-0.2,1.7-1l23.9-89.9c0.2-0.7-0.2-1.5-1-1.7l-125.2-33.3c-0.7-0.2-1.5,0.2-1.7,1
	L435.3,344c-0.2,0.7,0.2,1.5,1,1.7c0,0,0,0,0,0L561.5,379z"/>
<path class="st1" d="M577.1,292.7l-17,63.9c-0.2,0.9-1.1,1.4-2,1.2l-108.5-28.9c-0.1,0-0.2,0-0.2-0.1c-0.8-0.3-1.2-1.2-1-2l17-63.9
	c0.2-0.9,1.1-1.4,2-1.2l108.5,28.9C576.8,290.9,577.3,291.8,577.1,292.7z"/>
<path class="st3" d="M562.5,347.5l-2.4,9.1c-0.2,0.9-1.1,1.4-2,1.2l-108.5-28.9c-0.1,0-0.2,0-0.2-0.1c-0.8-0.3-1.2-1.2-1-2l2.4-9.1
	L562.5,347.5z"/>
<rect x="504.6" y="330.3" transform="matrix(0.2571 -0.9664 0.9664 0.2571 47.856 740.686)" class="st7" width="2" height="17.9"/>
<rect x="465" y="319.7" transform="matrix(0.2571 -0.9664 0.9664 0.2571 28.5755 694.4929)" class="st7" width="2" height="17.9"/>
<rect x="544.3" y="340.8" transform="matrix(0.2571 -0.9664 0.9664 0.2571 67.1365 786.8792)" class="st7" width="2" height="17.9"/>
<circle class="st3" cx="462.4" cy="257" r="2"/>
<circle class="st3" cx="582.6" cy="289" r="2"/>
<circle class="st3" cx="442.3" cy="341.8" r="2"/>
<circle class="st3" cx="559.7" cy="375" r="2"/>
<rect x="540" y="338.9" transform="matrix(0.2576 -0.9663 0.9663 0.2576 69.256 777.8268)" class="st3" width="1.6" height="9.9"/>
<path class="st4" d="M465,323.2l1.9,1l75.2,20l1.1-1.4c1.9-2.4,3.1-5.3,3.5-8.3c0.3-2.3,0-4.6-1.6-6.1l2.6-23.1l-41.6-11.1
	l-19.5,8.7c0,0-7.6-2.2-13,1.9c-2,1.5-3.5,3.6-4.3,6l-0.9,2.6L465,323.2z"/>
<circle class="st3" cx="483.4" cy="327.7" r="9.6"/>
<circle class="st7" cx="483.4" cy="327.7" r="5.1"/>
<circle class="st3" cx="529.2" cy="339.9" r="9.6"/>
<circle class="st7" cx="529.2" cy="339.9" r="5.1"/>
<polygon class="st1" points="495,303.6 517.5,309.6 520.2,310.3 524.9,311.6 525,311.2 526.1,307.1 527.3,302.6 524.2,301.8 
	521.4,301 516.6,299.7 513.9,299 508.2,297.5 "/>
<polygon class="st1" points="528.5,312.5 540.4,315.7 541,313.4 542.1,309.3 542.8,306.7 541.1,306.3 538.3,305.5 530.9,303.6 "/>
<rect x="520.4" y="318.7" transform="matrix(0.2576 -0.9663 0.9663 0.2576 78.7781 741.5316)" class="st3" width="3" height="1.6"/>
<rect x="498" y="306.7" transform="matrix(0.2576 -0.9663 0.9663 0.2576 72.5177 710.7673)" class="st3" width="1.6" height="3"/>
<path class="st3" d="M499.2,308.2l-0.2,0c-1.8-0.5-2.8-2.3-2.3-4l0,0c0.5-1.8,2.3-2.8,4-2.3l0.2,0l0,0L499.2,308.2L499.2,308.2z"/>
<path class="st3" d="M470,313.9c2.6,1,5.6-0.3,6.6-2.9c0.8-2,0.2-4.3-1.4-5.7c-2,1.5-3.5,3.6-4.3,6L470,313.9z"/>
<polygon class="st8" points="521.4,301 525,311.2 526.1,307.1 524.2,301.8 "/>
<polygon class="st8" points="538.3,305.5 541,313.4 542.1,309.3 541.1,306.3 "/>
<polygon class="st8" points="513.9,299 517.5,309.6 520.2,310.3 516.6,299.7 "/>
<circle class="st4" cx="102.1" cy="109.8" r="10.2"/>
<path class="st6" d="M106.5,100.5c4.2,3.8,4.5,10.3,0.7,14.4c-3,3.3-7.9,4.3-11.9,2.4c4.2,3.8,10.6,3.5,14.5-0.7
	c3.8-4.2,3.5-10.6-0.7-14.5C108.3,101.6,107.4,101,106.5,100.5z"/>
<ellipse class="st5" cx="365.4" cy="120.9" rx="25.2" ry="10.2"/>
<path class="st6" d="M365.4,110.7c-0.9,0-1.7,0-2.6,0.1c12.7,0.5,22.6,4.9,22.6,10.2c0,5.3-9.9,9.7-22.6,10.2c0.8,0,1.7,0.1,2.6,0.1
	c13.9,0,25.2-4.6,25.2-10.2C390.5,115.2,379.3,110.7,365.4,110.7z"/>
<path class="st5" d="M398.2,120.9H271.9v-13.7c0-1.4-1.1-2.6-2.6-2.6h-70c-1.4,0-2.6,1.1-2.6,2.6v13.7h-73.4v-8.5
	c0-1.4-1.1-2.6-2.6-2.6H83.4c-1.4,0-2.6,1.1-2.6,2.6v8.5H70.6c-1.4,0-2.6,1.1-2.6,2.6c0,0,0,0,0,0v168.1c0,1.4,1.1,2.6,2.6,2.6
	c0,0,0,0,0,0h327.6c1.4,0,2.6-1.1,2.6-2.6c0,0,0,0,0,0V123.5C400.8,122,399.6,120.9,398.2,120.9
	C398.2,120.9,398.2,120.9,398.2,120.9z"/>
<path class="st6" d="M398.2,281.6H70.6c-1.4,0-2.6-1.1-2.6-2.6c0,0,0,0,0,0V291c0,1.4,1.1,2.6,2.6,2.6c0,0,0,0,0,0h327.6
	c1.4,0,2.6-1.1,2.6-2.6c0,0,0,0,0,0V279C400.8,280.4,399.6,281.6,398.2,281.6C398.2,281.6,398.2,281.6,398.2,281.6z"/>
<rect x="68" y="199.4" class="st6" width="332.7" height="32.4"/>
<rect x="68" y="183.2" class="st6" width="332.7" height="32.4"/>
<rect x="68" y="190.9" class="st4" width="332.7" height="32.4"/>
<circle class="st4" cx="234.4" cy="207.1" r="64.8"/>
<path class="st6" d="M284.3,165.7c18.1,30.9,7.8,70.6-23.1,88.7c-27.4,16.1-62.5,9.9-82.8-14.6c18.1,30.9,57.9,41.2,88.7,23.1
	s41.2-57.9,23.1-88.7C288.6,171.3,286.6,168.4,284.3,165.7z"/>
<circle class="st5" cx="234.4" cy="207.1" r="48.3"/>
<path class="st1" d="M271.9,207.1c0,5.1-1,10.1-3,14.8c-1.1,2.5-2.4,4.9-4.1,7.1c-12.1,16.8-35.6,20.6-52.4,8.5
	c-16.8-12.1-20.6-35.6-8.5-52.4c2.4-3.3,5.2-6.1,8.5-8.5c2.2-1.6,4.6-3,7.1-4.1c19.1-8.2,41.1,0.6,49.3,19.7
	C270.9,196.9,271.9,202,271.9,207.1L271.9,207.1z"/>
<path class="st6" d="M271.5,201.6c-1.4-9.5-6.4-18.2-14-24.1c6.7,10.5,7.8,23.6,2.9,35c-1.1,2.5-2.4,4.9-4.1,7.1
	c-12.1,16.8-35.6,20.6-52.4,8.5c-0.4-0.3-0.8-0.6-1.2-0.9c11.1,17.5,34.3,22.6,51.8,11.5c4-2.6,7.5-5.8,10.3-9.7
	c1.6-2.2,3-4.6,4.1-7.1C271.6,215.5,272.5,208.5,271.5,201.6L271.5,201.6z"/>
</svg>
