<?xml version="1.0" encoding="utf-8"?>
<!-- Generator: Adobe Illustrator 23.0.1, SVG Export Plug-In . SVG Version: 6.00 Build 0)  -->
<svg version="1.1" id="Layer_1" xmlns="http://www.w3.org/2000/svg" xmlns:xlink="http://www.w3.org/1999/xlink" x="0px" y="0px"
	 viewBox="0 0 32 32" style="enable-background:new 0 0 32 32;" xml:space="preserve">
<style type="text/css">
	.st0{enable-background:new    ;}
	.st1{fill:#1A1A19;}
	.st2{fill:#FFFC31;}
</style>
<g class="st0">
	<path class="st1" d="M2.3,12.6c0.5-1,1.1-1.8,2-2.3C5.1,9.7,6,9.5,7,9.5c0.9,0,1.6,0.2,2.3,0.5c0.6,0.4,1.1,0.8,1.5,1.4V9.6h4.5
		v12.8h-4.5v-1.8c-0.4,0.6-0.9,1.1-1.5,1.4S7.9,22.6,7,22.6c-1,0-2-0.3-2.8-0.8c-0.8-0.5-1.5-1.3-2-2.3S1.5,17.4,1.5,16
		S1.8,13.6,2.3,12.6z M10.1,14.1c-0.5-0.5-1-0.7-1.7-0.7c-0.7,0-1.2,0.2-1.7,0.7c-0.4,0.5-0.7,1.1-0.7,2c0,0.8,0.2,1.5,0.7,2
		c0.4,0.5,1,0.7,1.7,0.7c0.7,0,1.2-0.2,1.7-0.7c0.5-0.5,0.7-1.1,0.7-2C10.8,15.2,10.6,14.6,10.1,14.1z"/>
</g>
<g class="st0">
	<path class="st2" d="M17.9,12.6c0.5-1,1.1-1.8,2-2.3c0.8-0.5,1.8-0.8,2.8-0.8c0.9,0,1.6,0.2,2.3,0.5c0.6,0.4,1.1,0.8,1.5,1.4V9.6
		h4.5v12.8h-4.5v-1.8c-0.4,0.6-0.9,1.1-1.5,1.4c-0.6,0.4-1.4,0.5-2.3,0.5c-1,0-2-0.3-2.8-0.8c-0.8-0.5-1.5-1.3-2-2.3
		c-0.5-1-0.7-2.2-0.7-3.5S17.4,13.6,17.9,12.6z M25.7,14.1c-0.5-0.5-1-0.7-1.7-0.7c-0.7,0-1.2,0.2-1.7,0.7c-0.4,0.5-0.7,1.1-0.7,2
		c0,0.8,0.2,1.5,0.7,2c0.4,0.5,1,0.7,1.7,0.7c0.7,0,1.2-0.2,1.7-0.7c0.5-0.5,0.7-1.1,0.7-2C26.4,15.2,26.2,14.6,25.7,14.1z"/>
</g>
</svg>
